<svg xmlns="http://www.w3.org/2000/svg" xmlns:xlink="http://www.w3.org/1999/xlink" id="Layer_1" width="107.8" height="60" viewBox="-251 367 107.8 60"><style id="style4294">.st0{fill:#f79434}.st1{clip-path:url(#SVGID_2_);fill:#ddd}.st2{enable-background:new}.st3{fill:#fff}</style><path id="rect4858" fill="#fff" stroke-width="5" d="M-250.36478 367.4166h106.84361v52.97715h-106.84361z"/><path d="M-144.4 368.3v51.3h-105.4v-51.3h105.4m1.2-1.2H-251v53.7h107.8v-53.7z" class="st0" id="path4296"/><defs id="defs4298"><path id="SVGID_1_" d="M-249.8 368.3h105.3v51.3h-105.3z"/></defs><clipPath id="SVGID_2_"><use xlink:href="#SVGID_1_" overflow="visible" id="use4302"/></clipPath><path d="M-232.6 386.1c-10.5 0-19 8.5-19 18.9 4.4 27.8 37.3 20.4 38 0 0-10.5-8.6-18.9-19-18.9zm4.7 19.5c-9.32049 16.85007-2.45314 0-9.9 0v-3.9h2.1v-2.5c0-1.8.9-4.6 4.6-4.6h3.4v3.8h-2.4c-.4 0-1 .2-1 1v2.3h3.5zm72.9-22.7c-11.1 0-20.2 9-20.2 20.2 1.1 19.7 25 27.3 36.5 13.2 10.5-14.5-3-33-16.3-33.4zm7.8 18.9c-.1-1.9-.4-3.8-.8-5.5 8.8-5.2 13.7 5.5.8 5.5zm-13.5 2.4h11c.8 6.8-10.5 8.2-11 0zm-10.4-2.4c.2-2.9 1.2-5.6 2.7-7.8 1.7.9 3.7 1.7 6 2.2-.4 1.7-.7 3.6-.8 5.6zm10.4 0c.1-1.8.3-3.5.7-5.1 1.5.2 3.2.4 4.9.4 1.6 0 3.1-.1 4.5-.4.4 1.6.6 3.2.7 5zm5.6-14.9c1 1.4 2.7 4.1 3.9 7.5-1.2.2-2.5.3-3.8.3-1.5 0-2.9-.1-4.3-.3 1.2-3.5 2.9-6 4-7.4 0-.1.2-.1.2-.1zm11.9 5.1c-1.5.8-3.4 1.5-5.5 1.9-.9-2.8-2.2-5-3.2-6.7 3.3.7 6.4 2.4 8.7 4.8zm-15.4-4.7c-1 1.6-2.2 3.8-3.1 6.5-1.9-.5-3.6-1.2-5.1-1.9 2.1-2.3 4.9-4 8.2-4.6zm-12.5 16.9h8c2.5 9.4-7 10.7-8 0zm22.3 8c2.1.5 3.9 1.2 5.5 1.9-10.2 6.8-8.5 6.4-5.5-1.9zm.7-2.4c.5-1.7.9-3.6.9-5.6 12 2 12 8.8-.9 5.6zm-55-39.7v13.2c-.9-.5-2-.9-3.2-.9-3.4 0-6.1 2.6-6.1 5.7 0 3.2 2.7 5.7 6.1 5.7 3.3 0 6.1-2.6 6.1-5.7v-15.5l15.4-4.2v9.8c-1-.5-2.1-.9-3.2-.9-3.4 0-6.1 2.6-6.1 5.7 0 3.2 2.7 5.7 6 5.7 3.2 0 5.8-2.3 6.1-5.2v-16c1.6-11.1-21.4-13.1-21.4 2.3z" class="st1" id="path4304" clip-path="url(#SVGID_2_)" fill="#ddd"/><path d="M-148.6 423.4c0 1.9-1.6 3.5-3.5 3.5h-90.1c-1.9 0-3.5-1.5-3.5-3.5v-15.1c0-1.9 1.6-3.4 3.5-3.4h90.1c1.9 0 3.5 1.5 3.5 3.4v15.1z" class="st0" id="path4306"/><g class="st2" id="g4308"><path d="M-220.1 421.3h-2.4l-1.4-5.3c-.1-.2-.1-.6-.3-1.2-.1-.6-.2-1-.2-1.2 0 .2-.1.6-.2 1.2-.1.5-.2.9-.3 1.2l-1.4 5.3h-2.4l-2.6-10h2.1l1.3 5.5c.2 1 .4 1.9.5 2.6 0-.3.1-.7.2-1.2s.2-1 .3-1.3l1.5-5.6h2l1.5 5.6c.1.3.1.6.2 1.2s.2 1 .2 1.3c0-.4.1-.8.2-1.3s.2-1 .3-1.3l1.3-5.5h2.1l-2.5 10zm7.1.2c-1.2 0-2.2-.3-2.9-1s-1-1.6-1-2.9.3-2.3 1-3c.6-.7 1.5-1.1 2.7-1.1 1.1 0 1.9.3 2.5.9s.9 1.5.9 2.6v1h-4.9c0 .6.2 1.1.5 1.4s.8.5 1.4.5c.5 0 .9 0 1.3-.1s.8-.2 1.3-.5v1.6c-.4.2-.8.3-1.2.4-.5.1-1 .2-1.6.2zm-.3-6.5c-.4 0-.8.1-1 .4s-.4.7-.4 1.2h2.9c0-.5-.1-.9-.4-1.2-.3-.3-.6-.4-1.1-.4zm9.4-1.5c.9 0 1.6.4 2.1 1.1s.8 1.7.8 2.9c0 1.3-.3 2.2-.8 2.9-.5.7-1.2 1-2.2 1-.9 0-1.6-.3-2.1-1h-.1l-.4.8h-1.6v-10.7h2.1v2.5c0 .3 0 .8-.1 1.5h.1c.5-.6 1.2-1 2.2-1zm-.7 1.7c-.5 0-.9.2-1.1.5-.2.3-.4.8-.4 1.6v.2c0 .8.1 1.4.4 1.8s.6.5 1.2.5c.4 0 .8-.2 1-.6.3-.4.4-1 .4-1.7 0-.8-.1-1.3-.4-1.7-.3-.4-.6-.6-1.1-.6zm11 1.9l.9-1.2 2.1-2.3h2.4l-3 3.3 3.2 4.3h-2.4l-2.2-3.1-.9.7v2.4h-2.1v-10.7h2.1v4.8l-.1 1.8zm13.8 4.2h-2.1v-4.5c0-1.1-.4-1.7-1.2-1.7-.6 0-1 .2-1.3.6s-.4 1-.4 1.9v3.6h-2.1v-10.7h2.1v4h.1c.5-.8 1.2-1.1 2.2-1.1.9 0 1.6.2 2.1.7s.7 1.2.7 2.1l-.1 5.1zm7 0l-.4-1h-.1c-.4.4-.7.8-1.1.9-.4.2-.9.3-1.5.3-.7 0-1.3-.2-1.7-.6s-.6-1-.6-1.8.3-1.4.9-1.8c.6-.4 1.4-.6 2.6-.6h1.3v-.3c0-.8-.4-1.2-1.2-1.2-.6 0-1.3.2-2.2.6l-.7-1.4c.9-.5 1.9-.7 2.9-.7s1.8.2 2.4.7c.5.4.8 1.1.8 2v5.1h-1.4v-.2zm-.6-3.5h-.8c-.6 0-1.1.1-1.4.3-.3.2-.4.5-.4.9 0 .6.3.9 1 .9.5 0 .9-.1 1.2-.4s.4-.6.4-1.1v-.6zm-2.3-5v-.2c.8-.9 1.3-1.6 1.6-2.1h2.3v.1c-.2.2-.6.6-1.2 1.1-.6.5-1 .8-1.3 1l-1.4.1zm9.6 8.7c-2.4 0-3.6-1.3-3.6-3.9 0-1.3.3-2.3 1-3 .6-.7 1.6-1 2.8-1 .9 0 1.7.2 2.4.5l-.6 1.6-.9-.3c-.3-.1-.6-.1-.9-.1-1.1 0-1.6.8-1.6 2.3s.5 2.2 1.6 2.2c.4 0 .8-.1 1.1-.2s.7-.3 1-.5v1.8c-.3.2-.7.4-1 .4s-.8.2-1.3.2z" class="st3" id="path4310"/></g></svg>