<svg version="1" id="Layer_1" xmlns="http://www.w3.org/2000/svg" viewBox="0 0 60 60"><style>.st0{fill:url(#SVGID_1_)}.st1{fill:#fff}</style><linearGradient id="SVGID_1_" gradientUnits="userSpaceOnUse" x1="30" y1="1.3333" x2="30" y2="62.7246"><stop offset="0" stop-color="#5b75ab"/><stop offset="1" stop-color="#2c5494"/></linearGradient><path class="st0" d="M58 60H2c-1.1 0-2-.9-2-2V2C0 .9.9 0 2 0h56c1.1 0 2 .9 2 2v56c0 1.1-.9 2-2 2z"/><path class="st1" d="M49.3 29.4l-.7 7.8h-7.1V60H32V37.2h-6.2v-7.8H32s.1-5.9.1-6.6c0-4.3 3.1-9.4 10-9.4 1.1 0 7 .2 7 .2V21s-3.9.1-4.9.1c-1.4 0-2.7.8-2.7 2.8v5.5h7.8z"/></svg>