<svg version="1" id="Layer_1" xmlns="http://www.w3.org/2000/svg" viewBox="0 0 60 60"><style>.st0{fill:#f8d965}.st1{fill:#fcaf17}.st2{fill:#e96f24}.st3{fill:#89191c}.st4{fill:#9f1d21}.st5{fill:#fff}.st6{fill:#ffc83e}</style><path class="st0" d="M58 60H2c-1.1 0-2-.9-2-2V2C0 .9.9 0 2 0h56c1.1 0 2 .9 2 2v56c0 1.1-.9 2-2 2z"/><path class="st1" d="M55.7 30c0 14.2-11.5 25.7-25.7 25.7S4.3 44.2 4.3 30c0-4.6 1.2-9 3.4-12.7h44.7c2.1 3.7 3.3 8 3.3 12.7z"/><path class="st2" d="M53.6 30.6c0 13.1-10.6 23.7-23.7 23.7S6.2 43.7 6.2 30.6c0-5 1.5-9.5 4.1-13.3h39.1c2.7 3.8 4.2 8.4 4.2 13.3z"/><path class="st3" d="M51.5 32.1c0 12-9.7 21.7-21.7 21.7S8.1 44.1 8.1 32.1v-.5C8.2 26 10.4 21 14 17.3h31.7c3.5 3.8 5.7 8.8 5.9 14.3-.1.2-.1.3-.1.5z"/><path class="st4" d="M51.6 29.9c0 .6 0 1.1-.1 1.7-.9 11.2-10.3 20.1-21.7 20.1C18.4 51.6 9 42.8 8.1 31.6c0-.6-.1-1.2-.1-1.7 0-4.7 1.5-9 4-12.6h35.5c2.6 3.5 4.1 7.9 4.1 12.6z"/><path class="st5" d="M16.7 21v5.1h2.8v17.5h5.3V21h-8.1zM42 34.8V21h-5.4l-9.7 14v4.6H37v3.9h5v-3.9h2.3v-4.8H42zm-5 0h-4.7L37 28v6.8z"/><g><path class="st4" d="M9 3.4h10.5v12.8H9z"/><path class="st2" d="M19.5 3.4H30v12.8H19.5z"/><path class="st1" d="M30.1 3.4h10.5v12.8H30.1z"/><path class="st6" d="M40.6 3.4h10.5v12.8H40.6z"/><path class="st5" d="M11.3 6.7h1.9V9l2-2.3h2.5L15.5 9l2.3 3.8h-2.3l-1.3-2.5-1 1v1.5h-1.9V6.7zM22.2 6.7h5.1V8h-3.2v1H27v1.2h-2.9v1.2h3.3v1.4h-5.2V6.7zM32.3 6.7H34l2.3 3.4V6.7h1.8v6.1h-1.8L34 9.5v3.4h-1.8V6.7zM43.3 6.7h1.9v2.1h2.1V6.7h1.9v6.1h-1.9v-2.5h-2.1v2.5h-1.9V6.7z"/></g></svg>