<svg id="Layer_1" xmlns="http://www.w3.org/2000/svg" xmlns:xlink="http://www.w3.org/1999/xlink" viewBox="0 0 60 60"><style>.st0,.st1{clip-path:url(#SVGID_2_)}.st0{opacity:.25;fill:#fff}.st1{fill:url(#SVGID_3_)}.st1,.st2,.st3{fill-rule:evenodd;clip-rule:evenodd}.st2{opacity:.5;clip-path:url(#SVGID_2_);fill:#fff}.st3{fill:url(#SVGID_4_)}.st3,.st4{clip-path:url(#SVGID_2_)}.st5,.st6{fill-rule:evenodd;clip-rule:evenodd;fill:#fff}.st6{fill:#e4ddd7}.st7{fill:none}.st8{fill:#fff}.st9{fill-rule:evenodd;clip-rule:evenodd;fill:#ffea00}.st10{fill:#c8c8c8}.st10,.st11,.st12,.st13,.st14,.st15{fill-rule:evenodd;clip-rule:evenodd}.st11{opacity:.86;fill:#b3aea9}.st12,.st13,.st14,.st15{fill:#dac500}.st13,.st14,.st15{fill:#a7a093}.st14,.st15{fill:#ca942f}.st15{fill:#d4cbba}.st16{fill:#fdb834}.st17{fill:#ef8022}.st18{fill:#66b45c}.st19{fill:#8faec9}.st20{clip-path:url(#SVGID_6_);fill:#fff}</style><defs><path id="SVGID_1_" d="M0 0h60v60H0z"/></defs><clipPath id="SVGID_2_"><use xlink:href="#SVGID_1_" overflow="visible"/></clipPath><path class="st0" d="M63.6 25.2l-21.1 2-26.3-7.4-19.1 4.5-.6 31.8 14.9-2.4 35.1 8.2 16.8-1.8z"/><radialGradient id="SVGID_3_" cx="-555.607" cy="-22.255" r="174.876" fx="-674.027" fy="-29.035" gradientTransform="matrix(-.4694 0 0 -.3214 -250.65 18.155)" gradientUnits="userSpaceOnUse"><stop offset="0" stop-color="#8FC640"/><stop offset="1" stop-color="#2B803E"/></radialGradient><path class="st1" d="M-1 0h62.6v61.9H-1z"/><path class="st2" d="M-1 62V35.1l62-4.8V62z"/><radialGradient id="SVGID_4_" cx="21.914" cy="131.764" r="22.994" gradientTransform="matrix(.9832 0 0 1.4587 8.59 -142.194)" gradientUnits="userSpaceOnUse"><stop offset="0" stop-color="#8FC640"/><stop offset="1" stop-color="#2B803E"/></radialGradient><path class="st3" d="M-.8 49.4l61.9-11.3v23.8H-.8z"/><g class="st4"><path class="st5" d="M11.3 56.7C6.9 57.4-2 58.9-2 58.9V27.2s15.3-3.5 18.2-4.2c-.8 5.6-1.6 11.2-2.4 16.9-.9 5.5-1.7 11.1-2.5 16.8z"/><path class="st6" d="M11.5 55.7C5.2 56.8-.8 57.8-.8 57.8l.2-30.1s12-2.8 16.7-3.8c-.8 5.3-1.5 10.6-2.3 15.9-.8 5.3-1.6 10.6-2.3 15.9z"/><path class="st7" d="M-1 53.6v3.5c3-1.3 6.2-2.8 6.4-3-1.1 0-3.4-.2-6.4-.5zm60.3-1.3c.4-.3.7-.9 1.7-1.6v-5.8c-4 .4-8 .8-10.1 1 1.2 1.6 3.5 4.1 8.4 6.4zm-5.2-14.2l-.1.1c1.1-.1 5.1-.5 7.1-.7v-3.2c-2 .1-3.9.2-4.9.3-.7 1.2-1.4 2.4-2.1 3.5zm-51-.2c1.3-.8 1.9-1.6 3.9-2.4 0 0-.3 0-.4.1-2.3.3-4.7.5-7 .8-.2 0-.6.1-.6.2v1.7c1-.2 2.8-.3 4.1-.4z"/><path class="st8" d="M-.2 30.4l-.8.1v1.6l1-.7 15.1-1.8-6.7 4.6-9.4 1v1.4l.5-.3 7.1-.8-3.7 2.4-3.9.4v1.1l1.8-.2-1.8 1.1v1.4l8.8-1.8 5.9.1.3-2.3.6-3.9.2-1.2-2.8.6 3-2.1.4-2.6-13.6 1.6L5 27.6l10.7-1.5.2-1.1-11 1.4z"/><path class="st7" d="M61 43.7v-3.9c-3 1.7-8.2 3.9-10.5 5 2.2-.2 6.5-.7 10.5-1.1zM8.5 34.2c.2-.1.4-.2.6-.4h.2c2-1.4 4-2.8 5.9-4.1-4.8.6-9.6 1.1-14.3 1.7-.2 0-.6.1-.8.1-.3.2-1 .4-1 .7v3.1c2.9-.5 6.2-.8 9.4-1.1zm-7.6 5c-.6.1-1.2.1-1.8.2v.9c.7-.3 1.2-.7 1.8-1.1zm47.5 7.6c0 .2.9 5.8 1.3 8.5 1.3-.4 6-1.8 7.1-2.1-4.8-2.4-7.1-4.7-8.4-6.4zm2.2-3.6c3.1-1.5 6.2-2.9 9.2-4.4-.7.1-5.3.6-6.8.8-.7 1.2-1.5 2.4-2.4 3.6z"/><path class="st8" d="M5.4 54.2c-.2.1-3.4 1.7-6.4 3v.6c1-.1 1.6-.3 2.3-.4 1.8-.8 9.6-4.4 10.5-4.9.1-.5.2-1 .2-1.4-1.4.7-2.8 1.3-4.2 2-3-.3-5.9-.5-8.9-.8v1.3c3.1.3 5.4.5 6.5.6zm7.2-7.1c0-.1-.4-.7-.6-1-2 .8-9 3.3-13 4.8V52c3-.8 11.1-3.9 13.6-4.9z"/><path class="st5" d="M62.4 63.3L46.5 65s-1.3-11.5-2-17.3c-.7-5.8-2-17.3-2-17.3l20-1.9-.1 34.8z"/><path class="st6" d="M61.1 62.4L46.4 64s-1.3-10.9-1.9-16.3c-.6-5.4-1.9-16.3-1.9-16.3l18.5-1.8v32.8z"/><path class="st8" d="M56.9 33.4l2.1-3.6c-.9.1-1.7.2-2.6.2-1.6 2.7-7.3 11.5-8.5 13.2-.6-4.1-4.3-2.8-4.3-2.8s.1 1 .2 1.4c.4 0 .8-.1 1.2-.1.1 1.2 1.2 9.3 1.2 9.3l-1.3.1.1 1.3 1.3-.1.5 4-1.4.1.1 1.1s.9 0 1.4-.1c.3 2.1.5 4.3.8 6.4 1-.1 2.1-.2 3.1-.3-.3-2.2-.7-4.4-1-6.6 1.4-.4 6.6-1.9 7.8-2.3.4 1.1 2.6 6.4 3.3 7.9V50.7c-1 .7-1.3 1.3-1.7 1.6-4.9-2.3-7.2-4.7-8.4-6.4 2.1-.2 6.1-.6 10.1-1v-1.2c-4 .4-8.3.8-10.5 1 2.3-1.1 7.5-3.3 10.5-5v-2.2c-2 .2-5.9.6-7.1.7l.1-.1c.7-1.1 1.4-2.3 2.1-3.4 1-.1 2.9-.2 4.9-.3v-1.2c-.9.1-2.6.1-4 .2zm-.1 19.7c-1.1.3-5.8 1.7-7.1 2.1-.4-2.7-1.2-8.3-1.3-8.5 1.3 1.8 3.6 4.1 8.4 6.4zm3.1-14.3c-3 1.5-6.1 2.9-9.2 4.4.8-1.2 1.7-2.4 2.5-3.6 1.4-.2 5.9-.7 6.7-.8z"/><path class="st9" d="M9.5 34.9c-2.6 1.7-5.3 3.5-8 5.2 2.1-.4 4.2-.2 6.3-.6 2.1-.4 4.2-1.3 6.3-1.7.2-1.3.4-2.7.6-4-1.8.4-3.5.7-5.2 1.1z"/><path class="st10" d="M46.5 64.9c-5.9-1.4-11.7-2.8-17.6-4.1-5.9-1.4-11.7-2.8-17.6-4.1.4-2.8.8-5.7 1.2-8.5.5 1.2.9 2.5 1.1 3.8.8.2 1.7.3 2.5.4-.5-2.8-1.6-5.3-3.2-7.4l-.2 1.2.9-6.3c.8-5.6 1.6-11.2 2.4-16.9 4.4 1.2 8.8 2.5 13.1 3.7 4.4 1.2 8.8 2.5 13.1 3.7.7 5.8 1.3 11.5 2 17.3 1 5.7 1.6 11.5 2.3 17.2z"/><path class="st11" d="M46.4 64l-34.9-8.2s.7-5.1 1.1-7.6c.5 1.2.9 2.5 1.1 3.8.8.2 1.7.3 2.5.4-.5-2.8-1.6-5.3-3.2-7.4l3-21 26.5 7.4L46.4 64z"/><path class="st10" d="M13.5 50.9c-.5.1-.9.1-1.4.2-.1.5-.1 1-.2 1.4 1-.1 2-.3 3-.4-.4-.1-.9-.1-1.3-.2 0-.3-.1-.7-.1-1zm32.1 6.6c0-.4-.1-.8-.1-1.1-3.5-1.1-15.9-5-18.7-5.9.7-.1 5-.8 6.4-1 1.8.4 9.7 2.4 11.8 2.9 0-.4-.1-.8-.1-1.3-2.1-.5-7.9-2-8.7-2.2 1.5-.2 5.6-2.5 5.6-2.5s-3.2-2.5-4.2-2.8c-.1-1.2-.2-2.4-.3-3.7 2.2.6 4.3 1.2 6.5 1.8-.1-.4-.1-.9-.2-1.3-3.5-1-16.5-4.6-19.5-5.5.1-.6.3-1.2.4-1.9 1.6.6 14.3 5.4 19.1 7.2 0-.4-.1-.8-.1-1.1-4.8-1.8-16.8-6.4-18-6.9 1.4-.5 7.4-2.7 9-3.4-.8-.2-1.6-.4-2.3-.7-1.2.5-2.4.9-3.6 1.4-1.9-.7-10.3-3.9-12.5-4.8-.1.4-.1.7-.2 1.1 2.1.8 9.5 3.6 11.2 4.2-1.2.4-2.3.8-3.5 1.3-2.7-1-5.4-2.1-8-3.1-.1.4-.1.7-.2 1.1 2.5 1 5 1.9 7.5 2.9-.2.7-.3 1.4-.5 2-1-.3-5.9-1.6-7.5-2-.1.4-.1.8-.2 1.2 1.6.4 6.5 1.7 7.4 2-.3 1.2-.6 2.4-.9 3.7-2.4-.6-4.7-1.2-7.1-1.8-.1.7-.1 1.1-.2 1.4 5.1 1.3 21.6 5.6 26.3 6.8l.8 1.2s-6.1 1-8 1.4c-2.4-1.2-15.8-7.6-19.1-9.3-.1.4-.1.8-.2 1.2 3.2 1.6 6.4 3.2 9.6 4.7-1.3.1-7.9.8-9.9.9.3.4.5.8.7 1.2 1.9-.2 9.6-.9 11.4-1.1 1.8.8 3.6 1.7 5.4 2.5-.7.1-10.7 1.6-15.3 2.2.1.4.2.9.3 1.4 3-.4 5.9-.8 8.7-1.2 0 .1 2.9 1.2 4.4 1.6-1 .2-7.3 1.7-7 1.8-.9 1.2-1.9 2.3-2.8 3.4.9.2 1.8.4 2.8.7.9-1.1 1.8-2.2 2.6-3.3 0 0 6.6-1.3 7.8-1.5 1.1.4 9.7 3.1 13.2 4.2zM35.1 39.4c.1 1.2.1 2.5.2 3.7-1.7-.4-3.5-.9-5.2-1.3v-3.7c1 .2 4.4 1.1 5 1.3zm-11.2-3.1c1.3.4 2.6.7 3.9 1.1v3.8c-1.6-.4-3.1-.8-4.7-1.2.2-1.3.5-2.5.8-3.7zm-11 9.5v.2-.2z"/><path class="st12" d="M14.1 37.6c2.4.6 4.7 1.2 7.1 1.8.3-1.2.6-2.5.9-3.7-1.2-.3-6.2-1.6-7.4-1.9-.3 1.3-.4 2.6-.6 3.8z"/><path class="st13" d="M30.1 38v3.7c1.7.4 3.4.9 5.2 1.3-.1-1.2-.1-2.5-.2-3.7-1.7-.3-3.4-.8-5-1.3z"/><path class="st14" d="M46 60.5s-24.3-7.4-28.7-8.7c8.3-1.1 16.7-2.4 25.1-3.9.7.5 1.4.9 2.2 1.2-.2-2.1-.5-4.3-.7-6.4-2-.1-3.5.4-3.8 1.6l-25.9-6.7-.3 1.1 26.3 6.7c.2.4.4.8.8 1.2-8.4 1.4-16.8 2.7-25.2 3.9-.6-2.1-1.6-4-2.8-5.7-.2 1.1-.3 2.1-.5 3.2.4.9.7 1.8.9 2.8-.4.2-.8.2-1.3.3l-.2 1.4 3-.2 31.2 9.4-.1-1.2zM16.6 30.2c8.9 3.5 18 6.9 27.1 10.3-.1-.4-.1-.8-.1-1.2-8.6-3.3-17.2-6.6-25.7-9.8l5.9-3.4-1.6-.4-5.8 3.3c-.4-.1-.7-.3-1.1-.4-.1.4-.2.8-.2 1.1l-.1 1.4 1.6-.9z"/><path class="st13" d="M43.7 40.5c-3.3-.9-6.5-1.8-9.8-2.7-3.2-.9-6.5-1.8-9.7-2.7.1-.6.3-1.2.4-1.9 3.1 1.2 6.3 2.4 9.5 3.6 3.1 1.2 6.3 2.4 9.6 3.7-.1 0 0 0 0 0z"/><path class="st12" d="M44.5 48c-1.4-.7-2.3-1.7-2.4-2.6-.1-.9.7-1.4 2-1.4.1 1.3.3 2.6.4 4z"/><path class="st15" d="M44.8 40.4c-.4 0-.8.1-1.2.1v-.1c.4.1.8 0 1.2 0z"/><path class="st7" d="M54.6 44.4l6.4-.6v-3.9c-4 2-7.3 3.6-7.7 3.6.6.3 1 .6 1.3.9zm.2 1.1c-.3.7-1.2 1.4-2.4 2 1.4 1.4 3.5 3.1 6.9 4.7.5.2 1.7.5 1.7.7v-8c-3 .4-5.8.7-6.2.6z"/><path class="st16" d="M59.3 52.3c-3.5-1.6-5.6-3.3-7-4.7 1.2-.6 2.1-1.3 2.4-2 .4 0 3.2-.2 6.2-.5v-1.3l-6.4.6c-.3-.3-.7-.6-1.3-.9.3 0 3.7-1.6 7.7-3.6V38c-5 2.4-9.2 4.9-9.7 5.2-1.2-.3-2.5-.2-3.6-.2h.1L46 31.3l-2.4.1 1 7.9h-1.2l.1 1.2h1.2l.3 2.1s-.6.1-1.2.3c.2 2.1.5 4.3.7 6.4.8 0 4.3.3 5.3-.7 1.4 1.4 3.5 3.1 6.9 4.7 1.2.6 3.1 1.1 4.1 1.6V53c.2-.2-.9-.5-1.5-.7zm-13.4 8.2c0 .4.1.8.1 1.1.5 0 7.9-.4 14.9-.9v-1.1c-7.9.5-14.4.9-15 .9z"/><path class="st9" d="M46.6 43.5c1.9-.2 5.5.5 5.7 1.7.2 1.2-3.1 2.6-5.1 2.8-2 .2-1.9.1-2.7 0-.2-1.3-.3-2.7-.5-4 .8-.3.6-.3 2.6-.5z"/><path class="st7" d="M-1 42.5v4.6c5-1.7 8.3-2.9 8.3-2.9L-1 42.5z"/><path class="st16" d="M1.3 57.4l10.6-4.9.1-1.4-13 6.1v.6zm6-13.2S4 45.5-1 47.1v1.1c4-1.5 8-2.8 9.7-3.4 1.5.8 2.8 1.9 3.8 3.3.2-1.1.3-2.1.5-3.2-1.5-1.1-3.2-2-5-2.6-1.9-.7-3.9-1-5.7-1.3-.1 0 11.6-2.3 11.6-2.3l.3-1.1-12.3 2.5 13.1-9 .1-1.5L-1 40.2v2.3l8.3 1.7z"/><path class="st16" d="M15.1 29.6l.2-1.1-16.3 2v1.1z"/><path class="st17" d="M60.6 28.3c0-7.2-5.9-13.1-13.1-13.1-7.2 0-13.1 5.9-13.1 13.1 0 3.8 1.6 7.2 4.2 9.6l.1.1.1.1 8.8 8 8.7-7.9c2.6-2.5 4.3-6 4.3-9.9z"/><circle class="st8" cx="47.6" cy="28.2" r="10.2"/><circle class="st17" cx="47.6" cy="28.2" r="8.2"/><g><path class="st18" d="M14 25.3c0-3.1-2.5-5.6-5.6-5.6s-5.6 2.5-5.6 5.6c0 1.6.7 3.1 1.8 4.1l3.7 3.4 3.7-3.4c1.3-1 2-2.4 2-4.1z"/><circle class="st8" cx="8.4" cy="25.3" r="4.3"/><circle class="st18" cx="8.4" cy="25.3" r="3.5"/><path class="st19" d="M8.8 23.6zm.5.2h-.1z"/><path class="st8" d="M8.9 27.2c.1 0 .2-.1.2-.2s-.1-.2-.2-.2v-1.4H9c.1 0 .2.1.2.2v.5c0 .2.2.4.4.4s.4-.2.4-.4v-1.7c0-.1 0-.2-.1-.2l-.4-.3h-.1l-.1-.1h-.1v.1l.1.1s0 .1.1.1l.1.1v.2c0 .1.1.2.2.2h.1v1.5c0 .1-.1.2-.2.2s-.2-.1-.2-.2v-.5c0-.2-.2-.4-.4-.4h-.1v-.5c.1 0 .1-.1.1-.2V23.7l-.1-.1H7.2c-.1 0-.2.1-.2.2v.7c0 .1 0 .1.1.2v2.2H7c-.1 0-.2.1-.2.2v.1l.1.1h2zm.8-2.7c-.1 0-.1 0 0 0l-.1-.2.2.1v.1h-.1zm-1 .5H7.2v-.1h1.5v.1zm-1.5-1c0-.1.1-.2.2-.2h1.2c.1 0 .2.1.2.2v.4c0 .1-.1.2-.2.2H7.4c-.1 0-.2-.1-.2-.2V24z"/></g><g><path class="st18" d="M25.4 48.3c0-3.3-2.7-5.9-5.9-5.9-3.3 0-5.9 2.7-5.9 5.9 0 1.7.7 3.3 1.9 4.4l4 3.7 3.9-3.6c1.2-1.2 2-2.8 2-4.5z"/><circle class="st8" cx="19.4" cy="48.2" r="4.6"/><circle class="st18" cx="19.4" cy="48.2" r="3.7"/><defs><circle id="SVGID_5_" cx="19.4" cy="48.2" r="3.7"/></defs><clipPath id="SVGID_6_"><use xlink:href="#SVGID_5_" overflow="visible"/></clipPath><path class="st20" d="M20.6 52.8V47h-.1s-.7.4-.7 3.3c.5.1.3.7.3.8v1.7c0 .1.1.2.3.2.1.1.2 0 .2-.2zm-1.2-5.6h-.2v1.6H19v-1.6 1.6h-.1v-1.6h-.1v1.6h-.2l.1-1.6h-.1l-.2 1.3v.1c0 .2.1.4.2.5.5.6.2 1.1.2 1.3v2.4c0 .1.1.3.3.3s.3-.1.3-.3v-2.4c0-.2-.3-.8.2-1.3.1-.1.2-.3.2-.4l-.4-1.5zm0 0"/></g></g><path class="st4 st8" d="M19.3 14.4l-2.8-8h-.1c.1 1.2.1 2.3.1 3.3v4.6h-1.4V4.9h2.2l2.6 7.6 2.7-7.6H25v9.5h-1.5V7.8c0-.8 0-1.2.1-1.4h-.1l-2.9 8h-1.3zm12.6 0l-.3-1h-.1c-.3.4-.7.7-1.1.9-.4.2-.8.2-1.4.2-.7 0-1.3-.2-1.7-.6-.4-.4-.6-.9-.6-1.6 0-.7.3-1.3.8-1.7.6-.4 1.4-.6 2.5-.6h1.2v-.4c0-.5-.1-.8-.3-1-.2-.2-.5-.3-1-.3-.4 0-.7.1-1.1.2-.3.1-.7.2-1 .4l-.5-1.1c.4-.2.8-.4 1.3-.5.5-.1.9-.2 1.3-.2.9 0 1.6.2 2.1.6.5.4.7 1 .7 1.9v4.9h-.8zm-2.3-1c.6 0 1-.2 1.3-.5.3-.3.5-.7.5-1.3V11h-.9c-.7 0-1.2.1-1.6.4-.3.2-.5.5-.5 1 0 .3.1.6.3.7.2.2.5.3.9.3zm9.2 1.1c-.9 0-1.6-.3-2.1-1h-.1c.1.6.1 1 .1 1.1v3h-1.5V7.2h1.2c0 .1.1.5.2 1h.1c.5-.7 1.2-1.1 2.2-1.1.9 0 1.6.3 2.1 1s.8 1.6.8 2.7c0 1.2-.3 2.1-.8 2.8-.6.6-1.3.9-2.2.9zm-.4-6.2c-.6 0-1.1.2-1.3.5-.3.4-.4.9-.4 1.7v.2c0 .9.1 1.5.4 1.9.3.4.7.6 1.4.6.5 0 .9-.2 1.2-.7.3-.4.4-1.1.4-1.9 0-.8-.1-1.4-.4-1.8-.3-.3-.7-.5-1.3-.5z"/></svg>