<svg version="1" id="Layer_1" xmlns="http://www.w3.org/2000/svg" viewBox="0 0 60 60"><style>.st0{fill:url(#SVGID_1_)}.st1{fill:url(#SVGID_2_)}.st2{fill:#fff}</style><linearGradient id="SVGID_1_" gradientUnits="userSpaceOnUse" x1="30" y1=".1667" x2="30" y2="47.4828"><stop offset="0" stop-color="#f2f2f2"/><stop offset="1" stop-color="#ccc"/></linearGradient><path class="st0" d="M58 60H2c-1.1 0-2-.9-2-2V2C0 .9.9 0 2 0h56c1.1 0 2 .9 2 2v56c0 1.1-.9 2-2 2z"/><linearGradient id="SVGID_2_" gradientUnits="userSpaceOnUse" x1="30" y1="15.1667" x2="30" y2="59.9613"><stop offset="0" stop-color="#e52d27"/><stop offset="1" stop-color="#b31217"/></linearGradient><path class="st1" d="M58 60H2c-1.1 0-2-.9-2-2V30h60v28c0 1.1-.9 2-2 2z"/><path id="u_2_" d="M42.5 24.9H40v-1.5c-1 1.1-1.8 1.7-2.7 1.7-.8 0-1.3-.4-1.6-1-.2-.4-.3-1-.3-2V11.4h2.5v10.9c.1.4.2.5.5.5.5 0 .9-.4 1.5-1.2V11.4h2.5v13.5z"/><path id="o_2_" d="M33.5 15.8c0-1.4-.3-2.5-.8-3.2-.7-.9-1.7-1.3-2.8-1.3-1.2 0-2.1.4-2.8 1.3-.5.7-.8 1.8-.8 3.2v4.8c0 1.4.2 2.4.8 3.1.7.9 1.8 1.4 2.8 1.4 1.1 0 2.2-.5 2.9-1.4.5-.7.7-1.7.7-3.1v-4.8zM31 20.9c.1 1.3-.3 2-1.1 2s-1.2-.7-1.1-2v-5.3c-.1-1.3.3-2 1.1-2s1.2.6 1.1 2v5.3z"/><path id="y_2_" d="M23.5 17.5v7.3h-2.7v-7.3s-2.8-9-3.3-10.7h2.8l1.9 7 1.9-7h2.8l-3.4 10.7z"/><g><path id="e_1_" class="st2" d="M46.6 46.7V44c0-1.4-.3-2.5-.8-3.1-.7-.9-1.6-1.4-2.8-1.4-1.2 0-2.2.5-2.9 1.4-.5.7-.8 1.8-.8 3.2v4.7c0 1.4.3 2.4.8 3.1.7.9 1.7 1.4 2.9 1.4 1.3 0 2.3-.5 2.9-1.4.3-.4.5-.9.6-1.4 0-.2.1-.8.1-1.6v-.4h-2.5v1.7c-.1.6-.5 1-1.1 1-.8 0-1.2-.6-1.2-1.9v-2.4h4.8zm-4.8-3.5c0-1.2.3-1.6 1.1-1.6s1.1.4 1.1 1.6v1.5h-2.3v-1.5z"/><path id="b_1_" class="st2" d="M35.4 39.4c-.9 0-1.8.5-2.6 1.5v-5.8h-2.4V53h2.4v-1.3c.8 1 1.7 1.5 2.5 1.5 1 0 1.7-.5 2-1.5.2-.6.3-1.4.3-2.7v-5.3c0-1.3-.2-2.1-.3-2.7-.3-1.1-.9-1.6-1.9-1.6zm-.3 9.7c0 1.3-.3 1.8-1 1.8-.4 0-.9-.2-1.3-.6v-8.1c.4-.4.9-.6 1.3-.6.7 0 1 .4 1 1.7v5.8z"/><path id="u_1_" class="st2" d="M28.5 52.9H26v-1.5c-1 1.1-1.8 1.7-2.7 1.7-.8 0-1.3-.4-1.6-1-.2-.4-.3-1-.3-2V39.6h2.5v10.8c.1.4.2.5.5.5.5 0 .9-.4 1.5-1.2V39.6h2.5v13.3z"/><path id="T" class="st2" d="M18.9 52.9h-2.7V37.6h-2.8v-2.5h8.4v2.5h-2.9z"/></g></svg>