<svg version="1" id="Layer_1" xmlns="http://www.w3.org/2000/svg" viewBox="0 0 60 60"><style>.st0{fill:url(#SVGID_1_)}.st1{fill:url(#SVGID_2_)}.st2{fill:url(#SVGID_3_)}.st3{fill:url(#SVGID_4_)}.st4{fill:url(#SVGID_5_)}.st5{fill:#fff}.st6{enable-background:new}.st7{fill:#323232}</style><linearGradient id="SVGID_1_" gradientUnits="userSpaceOnUse" x1="30" y1="60" x2="30" y2="-.3416" gradientTransform="matrix(1 0 0 -1 0 60)"><stop offset="0" stop-color="#4b4b4b"/><stop offset="1" stop-color="#313231"/></linearGradient><path class="st0" d="M58 60H2c-1.1 0-2-.9-2-2V2C0 .9.9 0 2 0h56c1.1 0 2 .9 2 2v56c0 1.1-.9 2-2 2z"/><linearGradient id="SVGID_2_" gradientUnits="userSpaceOnUse" x1="13.65" y1="59.8348" x2="13.65" y2="16.9293" gradientTransform="matrix(1 0 0 -1 0 60)"><stop offset="0" stop-color="#1a8ec8"/><stop offset="1" stop-color="#1367b7"/></linearGradient><path class="st1" d="M8.1 0h11.1v42H8.1z"/><linearGradient id="SVGID_3_" gradientUnits="userSpaceOnUse" x1="24.55" y1="59.8348" x2="24.55" y2="17.6979" gradientTransform="matrix(1 0 0 -1 0 60)"><stop offset="0" stop-color="#7acb68"/><stop offset="1" stop-color="#5cb750"/></linearGradient><path class="st2" d="M19 0h11.1v42H19z"/><linearGradient id="SVGID_4_" gradientUnits="userSpaceOnUse" x1="35.45" y1="59.8348" x2="35.45" y2="17.9201" gradientTransform="matrix(1 0 0 -1 0 60)"><stop offset="0" stop-color="#f2b52b"/><stop offset="1" stop-color="#ec9b1f"/></linearGradient><path class="st3" d="M29.9 0H41v42H29.9z"/><linearGradient id="SVGID_5_" gradientUnits="userSpaceOnUse" x1="46.35" y1="59.8348" x2="46.35" y2="17.0411" gradientTransform="matrix(1 0 0 -1 0 60)"><stop offset="0" stop-color="#e6338f"/><stop offset="1" stop-color="#df2971"/></linearGradient><path class="st4" d="M40.8 0h11.1v42H40.8z"/><g><path class="st5" d="M21.9 11.6c-.7 0-1.2-.2-1.7-.7s-.7-1-.7-1.7.2-1.2.7-1.7 1-.7 1.7-.7h16c.8 0 1.4.2 2 .6s.8 1 .8 1.7c0 .2 0 .4-.1.6-.1.3-.2.5-.3.8L26 30.8h12.6c.7 0 1.2.2 1.7.7.5.4.7 1 .7 1.7s-.2 1.2-.7 1.7-1 .7-1.7.7H21.7c-.8 0-1.5-.2-2-.7-.5-.4-.7-1-.7-1.7 0-.2 0-.4.1-.7.1-.2.2-.5.3-.7 2.3-3.3 4.7-6.7 7.1-10 2.4-3.4 4.8-6.7 7.2-10.2H21.9z"/></g><path class="st5" d="M41.3 56H18.7c-3 0-5.5-2.5-5.5-5.5s2.5-5.5 5.5-5.5h22.5c3 0 5.5 2.5 5.5 5.5.1 3-2.4 5.5-5.4 5.5z"/><g><g class="st6"><path class="st7" d="M18.1 49.5c0-.7 0-1.3-.1-1.9h1.4l.1.9c.3-.5.9-1.1 2-1.1.8 0 1.5.5 1.8 1.2.2-.4.5-.6.8-.8.4-.2.8-.4 1.3-.4 1.1 0 2.1.7 2.1 2.7v3.7h-1.6v-3.5c0-1.1-.4-1.7-1.1-1.7-.5 0-.9.4-1.1.8 0 .2-.1.4-.1.5v3.8H22V50c0-.9-.4-1.5-1.1-1.5-.6 0-1 .5-1.1.9-.1.2-.1.3-.1.5v3.7h-1.6v-4.1zM29.1 49.7c0-.8 0-1.5-.1-2.1h1.4l.1 1c.5-.7 1.2-1.1 2.2-1.1 1.5 0 2.7 1.2 2.7 3.2 0 2.3-1.4 3.4-2.9 3.4-.8 0-1.5-.3-1.8-.8v3.3h-1.6v-6.9zm1.6 1.5c0 .2 0 .3.1.4.2.6.7 1.1 1.4 1.1 1 0 1.6-.8 1.6-2.1 0-1.1-.5-2-1.6-2-.7 0-1.3.5-1.4 1.2 0 .1-.1.3-.1.4v1zM36.7 52.2c.3.2 1.1.5 1.9.5 1.2 0 1.7-.7 1.7-1.4 0-1-.9-1.4-1.9-1.4h-.7v-1.2h.7c.7 0 1.7-.3 1.7-1.2 0-.6-.4-1.1-1.4-1.1-.7 0-1.4.3-1.7.5l-.4-.9c.5-.3 1.4-.7 2.4-.7 1.7 0 2.6 1 2.6 2.1 0 .9-.5 1.6-1.6 2 1 .2 1.9 1 1.9 2.1 0 1.4-1.2 2.6-3.3 2.6-1 0-1.9-.3-2.4-.6l.5-1.3z"/></g></g></svg>